<svg width="1440" height="208" viewBox="0 0 1440 208" fill="none" xmlns="http://www.w3.org/2000/svg">
<path d="M8.73542 55.4528L0 58.487V207.5H1440V53.0928H1422.19L1379.86 67.5896L1359.37 70.6238H1336.18L1322.74 48.373L1310.65 53.0928H1304.6L1295.87 63.8811L1287.13 59.1612L1271.34 46.013H1262.94L1252.52 56.4642H1248.83L1240.09 63.8811H1221.28L1210.53 67.5896L1188.35 75.3437H1178.27L1159.46 63.8811L1136.61 56.4642H1125.53L1115.11 67.5896H1096.63L1075.46 59.1612L1057.32 46.013L1042.2 40.956L1026.08 46.013L1011.29 40.956L998.19 36.9104L993.15 28.145L976.015 22.4137L962.912 16.6824L940.065 22.4137L936.706 16.6824L921.587 22.4137L914.867 16.6824L891.349 22.4137L864.806 11.9625L838.6 8.25407L823.145 3.19707L804.33 0.5L772.077 8.25407L746.206 36.9104H740.495L722.352 28.145H710.593L706.225 31.5163L688.754 22.4137L666.916 28.145L656.5 22.4137H638.693L623.238 31.5163L614.167 28.145L583.929 36.9104H568.138L541.26 48.373L528.829 46.013L525.805 40.956L514.382 48.373L509.678 46.013L504.974 40.956L473.392 46.013L447.522 40.956L423.332 28.145L394.438 19.7166L372.935 22.4137L352.105 36.9104L331.274 40.956H316.155L297.004 46.013L262.734 40.956L236.192 49.3844H216.706L182.1 58.487L176.388 68.601H168.997L144.806 82.0863L74.923 58.487L57.1162 55.4528L44.349 52.0814L28.8941 55.4528L22.1745 58.487L16.7989 55.4528H8.73542Z" fill="white"/>
</svg>
